Coordinates
version=1
nRows=10
nColumns=63
inDegrees=yes

Units are S.I. units (second, meters, Newtons, ...)
If the header above contains a line with 'inDegrees', this indicates whether rotational values are in degrees (yes) or radians (no).

endheader
time	pelvis_tilt	pelvis_list	pelvis_rotation	pelvis_tx	pelvis_ty	pelvis_tz	hip_flexion_r	hip_adduction_r	hip_rotation_r	knee_angle_r	knee_angle_r_beta	ankle_angle_r	subtalar_angle_r	mtp_angle_r	hip_flexion_l	hip_adduction_l	hip_rotation_l	knee_angle_l	knee_angle_l_beta	ankle_angle_l	subtalar_angle_l	mtp_angle_l	L5_S1_Flex_Ext	L5_S1_Lat_Bending	L5_S1_axial_rotation	L4_L5_Flex_Ext	L4_L5_Lat_Bending	L4_L5_axial_rotation	L3_L4_Flex_Ext	L3_L4_Lat_Bending	L3_L4_axial_rotation	L2_L3_Flex_Ext	L2_L3_Lat_Bending	L2_L3_axial_rotation	L1_L2_Flex_Ext	L1_L2_Lat_Bending	L1_L2_axial_rotation	L1_T12_Flex_Ext	L1_T12_Lat_Bending	L1_T12_axial_rotation	Abs_r3	Abs_r2	Abs_r1	Abs_t1	Abs_t2	neck_flexion	neck_bending	neck_rotation	arm_flex_r	arm_add_r	arm_rot_r	elbow_flex_r	pro_sup_r	wrist_flex_r	wrist_dev_r	arm_flex_l	arm_add_l	arm_rot_l	elbow_flex_l	pro_sup_l	wrist_flex_l	wrist_dev_l
      2.05084746	      0.43624471	      1.29880847	     85.22849827	      0.12175694	      0.93483917	      0.40698399	     -3.29871031	      5.49609587	      8.99077645	      0.16806805	      0.00293334	     25.86363359	    -13.83708915	      0.00000000	     -4.15825887	     -3.93836207	     -8.28810563	      1.25452633	      0.02189562	     32.16060624	      9.64085467	      0.00000000	      0.02765478	      0.80902186	     -0.67858597	      0.05135770	      1.07599907	     -0.72099759	      0.04543404	      1.96705575	     -0.72099759	      0.03160665	      1.96705575	     -0.59376272	      0.02568023	      1.64975738	     -0.55135110	      0.01580194	      1.25317486	     -0.50893948	      0.19753535	      9.15181709	     -3.77409157	      0.00000000	      0.00000000	     26.27103708	     -1.49978857	     15.89228171	      8.14953503	    -15.06351092	    142.38279801	     14.47902686	      6.10413676	      1.68606298	     -7.69094390	      1.47565784	     -8.45059772	    160.25636057	      5.38986018	      3.81634113	     -0.12194174	     -2.60164631
      2.06779661	      0.71825752	      1.25897538	     84.96107956	      0.12169498	      0.93536585	      0.40681753	     -3.23306581	      5.75425009	      9.20600916	      0.16735665	      0.00292092	     25.73707100	    -13.70223135	      0.00000000	     -4.19679954	     -4.20347054	     -8.38623329	      1.26065066	      0.02200250	     32.30505627	      9.51609689	      0.00000000	      0.02691763	      0.86220383	     -0.60408915	      0.04998873	      1.14673110	     -0.64184472	      0.04422297	      2.09636240	     -0.64184472	      0.03076416	      2.09636240	     -0.52857801	      0.02499571	      1.75820606	     -0.49082244	      0.01538073	      1.33555374	     -0.45306686	      0.19226994	      9.75342221	     -3.35976264	      0.00000000	      0.00000000	     25.89299860	     -2.06125199	     16.70687052	      7.91977612	    -15.37161072	    142.04583352	     14.40263703	      5.83854972	      1.34744713	     -7.92075275	      1.43629781	     -8.38187588	    159.45740071	      5.95044535	      3.38869317	      0.29741323	     -3.16207075
      2.08474576	      0.98178927	      1.25511019	     84.64021006	      0.12127969	      0.93599769	      0.40682930	     -3.18928249	      5.94800933	      9.67623022	      0.16476397	      0.00287567	     25.42674678	    -13.86514248	      0.00000000	     -4.28638208	     -4.40162358	     -8.59532017	      1.23015431	      0.02147024	     32.24066302	      9.25670151	      0.00000000	      0.01079278	      0.91587198	     -0.55636624	      0.02004327	      1.21810973	     -0.59113913	      0.01773146	      2.22685113	     -0.59113913	      0.01233507	      2.22685113	     -0.48682046	      0.01002218	      1.86764614	     -0.45204757	      0.00616700	      1.41868569	     -0.41727468	      0.07709176	     10.36052699	     -3.09434210	      0.00000000	      0.00000000	     25.59512621	     -2.22474285	     17.73303942	      7.95686091	    -16.18965697	    138.23969444	     15.29383601	      7.54580663	      0.77656572	     -7.61510148	      1.62770101	     -9.18208943	    144.33457455	      8.91493870	      5.11744660	      0.54043717	     -3.17833506
      2.10169492	      1.32035019	      1.23193776	     84.56776381	      0.12065694	      0.93665846	      0.40686635	     -3.13120825	      6.23761262	      9.15448798	      0.16554411	      0.00288929	     25.35199149	    -12.99179127	      0.00000000	     -4.33131314	     -4.71295825	     -8.35311466	      1.17537634	      0.02051419	     32.01246202	      8.70987042	      0.00000000	     -0.00400251	      0.97927462	     -0.54264846	     -0.00743306	      1.30243524	     -0.57656399	     -0.00657572	      2.38100831	     -0.57656399	     -0.00457447	      2.38100831	     -0.47481740	     -0.00371673	      1.99693680	     -0.44090188	     -0.00228703	      1.51689639	     -0.40698635	     -0.02858951	     11.07775035	     -3.01804795	      0.00000000	      0.00000000	     25.29144223	     -2.71212053	     18.84257174	      7.98974942	    -16.71830380	    136.99889350	     15.60574653	      7.71893821	      0.74980581	     -7.62609701	      1.67996815	     -9.19708412	    141.88587443	      9.40628851	      4.61867338	      1.45344351	     -4.07102398
      2.11864407	      1.55692374	      1.14477855	     84.53237655	      0.12004098	      0.93718087	      0.40707006	     -2.97576290	      6.42871889	      9.99784871	      0.16415111	      0.00286498	     24.78407628	    -14.21736283	      0.00000000	     -4.26741783	     -4.93542244	     -8.27800900	      1.14953374	      0.02006315	     31.66905153	      8.43856995	      0.00000000	     -0.00256904	      1.02502998	     -0.52764291	     -0.00477096	      1.36328987	     -0.56062060	     -0.00422068	      2.49225788	     -0.56062060	     -0.00293616	      2.49225788	     -0.46168755	     -0.00238561	      2.09024113	     -0.42870987	     -0.00146795	      1.58777143	     -0.39573219	     -0.01835040	     11.59534408	     -2.93459160	      0.00000000	      0.00000000	     24.88333841	     -3.05369851	     19.50147532	      7.98004828	    -17.07390284	    136.11914894	     15.74461143	      8.34196055	      0.60197930	     -7.54968263	      1.83183756	     -9.86218131	    131.94954256	     11.55268310	      5.61963253	      1.37311145	     -3.38527980
      2.13559322	      1.83379107	      1.08564697	     84.67667347	      0.11928905	      0.93768707	      0.40731603	     -2.85158528	      6.66644528	      9.55738037	      0.16596958	      0.00289672	     24.64615907	    -13.81683873	      0.00000000	     -4.20710972	     -5.21598221	     -8.30360669	      1.09830551	      0.01916905	     31.27188861	      8.41966084	      0.00000000	     -0.00710828	      1.07397220	     -0.54113869	     -0.01320079	      1.42838303	     -0.57495985	     -0.01167820	      2.61125601	     -0.57495985	     -0.00812406	      2.61125601	     -0.47349635	     -0.00660075	      2.19004411	     -0.43967518	     -0.00406167	      1.66358294	     -0.40585401	     -0.05077374	     12.14898834	     -3.00965103	      0.00000000	      0.00000000	     24.65219029	     -3.47072420	     20.20880676	      7.99955356	    -17.38348036	    135.66141982	     15.82637994	      8.56412493	      0.66601189	     -7.62943295	      2.04994224	     -9.71879405	    130.95168522	     11.72937191	      5.96415746	      1.69716001	     -4.10866340
      2.15254237	      1.96762156	      1.00857455	     84.87548603	      0.11862873	      0.93786871	      0.40772610	     -2.69276482	      6.77035458	      9.79429147	      0.16764010	      0.00292587	     24.39837965	    -14.42929420	      0.00000000	     -4.07193428	     -5.36340980	     -8.25071799	      1.08798836	      0.01898898	     30.90958073	      8.45877205	      0.00000000	     -0.00637012	      1.09850486	     -0.57643824	     -0.01182995	      1.46101146	     -0.61246563	     -0.01046547	      2.67090471	     -0.61246563	     -0.00728041	      2.67090471	     -0.50438346	     -0.00591529	      2.24007111	     -0.46835607	     -0.00363989	      1.70158403	     -0.43232868	     -0.04550113	     12.42650667	     -3.20597654	      0.00000000	      0.00000000	     24.55094597	     -3.46738017	     20.74062518	      8.08657360	    -17.51305769	    135.62569625	     15.85265139	      8.95910188	      0.72385571	     -7.60657170	      2.13962881	    -10.17036106	    124.21914954	     13.09097807	      7.82672402	      1.20893102	     -3.85162527
      2.16949153	      2.04207779	      1.01723375	     85.27343656	      0.11814283	      0.93776877	      0.40824481	     -2.64541538	      6.85140095	      9.19074391	      0.16944911	      0.00295744	     24.46452131	    -14.09775139	      0.00000000	     -3.97909704	     -5.48958031	     -7.99480423	      1.08336986	      0.01890837	     30.70925844	      8.62731663	      0.00000000	     -0.01465459	      1.10436530	     -0.64150264	     -0.02721504	      1.46880585	     -0.68159656	     -0.02407603	      2.68515379	     -0.68159656	     -0.01674873	      2.68515379	     -0.56131481	     -0.01360825	      2.25202172	     -0.52122090	     -0.00837363	      1.71066185	     -0.48112698	     -0.10467627	     12.49280113	     -3.56784524	      0.00000000	      0.00000000	     24.57209480	     -3.43088403	     20.84286914	      8.18741898	    -17.40096240	    136.35928994	     15.70542329	      8.64723035	      0.96850432	     -7.56891124	      1.11088754	    -12.10549697	    102.18599058	     16.89267830	     23.56918037	     -1.82694493	     -1.29496227
      2.18644068	      2.11731252	      0.92958364	     85.69388690	      0.11721469	      0.93756733	      0.40878288	     -2.52283925	      6.92068589	      8.56629512	      0.17352479	      0.00302858	     24.48760849	    -13.70245015	      0.00000000	     -3.77756112	     -5.58418493	     -7.59818968	      1.06559178	      0.01859808	     30.66862057	      8.77948279	      0.00000000	     -0.00622679	      1.11852123	     -0.72422807	     -0.01156377	      1.48763324	     -0.76949233	     -0.01022999	      2.71957253	     -0.76949233	     -0.00711660	      2.71957253	     -0.63369957	     -0.00578220	      2.28088850	     -0.58843531	     -0.00355799	      1.73258939	     -0.54317106	     -0.04447735	     12.65293590	     -4.02793928	      0.00000000	      0.00000000	     24.64945759	     -3.46514744	     21.05669639	      8.29561506	    -17.59066756	    135.48157267	     15.87736088	      9.52194757	      1.20042559	     -7.24239322	      1.12083718	    -12.07483588	    100.18493837	     17.33181968	     23.59646264	     -2.12851539	     -1.46486238
      2.20338983	      2.16516746	      0.88480491	     86.04987335	      0.11638871	      0.93735778	      0.40946243	     -2.46549431	      6.96555868	      8.43501752	      0.17625610	      0.00307625	     24.35179969	    -13.85141569	      0.00000000	     -3.63818247	     -5.64070560	     -7.14215741	      1.02804374	      0.01794275	     30.84900490	      9.00620629	      0.00000000	     -0.00626922	      1.12775534	     -0.77176432	     -0.01164257	      1.49991461	     -0.81999959	     -0.01029970	      2.74202434	     -0.81999959	     -0.00716509	      2.74202434	     -0.67529378	     -0.00582160	      2.29971870	     -0.62705851	     -0.00358223	      1.74689303	     -0.57882324	     -0.04478042	     12.75739400	     -4.29232164	      0.00000000	      0.00000000	     24.74934082	     -3.58969710	     20.97992628	      8.41893297	    -17.65843092	    135.66158754	     15.86247286	      9.59477586	      1.55504889	     -7.04046186	      1.36510219	    -11.94545499	     99.90401881	     17.53750402	     23.50672675	     -2.28455651	     -1.87935323
